<svg xmlns="http://www.w3.org/2000/svg" xmlns:xlink="http://www.w3.org/1999/xlink" version="1.1" width="106.82487642765045" height="28.209277749061584" viewBox="-0.056838274002075195 -0.529938293620944 106.82487642765045 28.209277749061584">
  <!-- Exported by Scratch - http://scratch.mit.edu/ -->
  <path id="ID0.03096994338557124" fill="#FF5695" stroke="none" stroke-linecap="round" d="M 84.5114 3.1581 L 92.383 24.0201 L 77.0269 23.805 L 84.5114 3.1581 Z " stroke-width="0.860288143157959"/>
  <path id="ID0.14459503954276443" fill="#000000" stroke="none" stroke-linecap="round" d="M 0.4624 19.8638 L 4.0856 21.2279 L 7.4956 15.6013 L 10.9057 20.1622 L 13.8895 16.9653 L 16.5323 18.4572 L 21.5621 11.3387 L 26.0378 20.1622 L 27.9559 19.8638 L 27.9559 27.1102 L 0.4624 27.1102 L 0.4624 19.8638 Z " stroke-width="0.8525108695030212"/>
  <g id="ID0.3211635765619576">
    <path id="ID0.03096994338557124" fill="#FF5695" stroke="none" stroke-linecap="round" d="M 42.2518 -0.0107 L 51.7538 25.1724 L 33.217 24.9127 L 42.2518 -0.0107 Z " stroke-width="1.038476586341858"/>
    <path id="ID0.14459503954276443" fill="#000000" stroke="none" stroke-linecap="round" d="M 26.0816 19.5544 L 28.1518 20.3913 L 31.5435 14.2247 L 35.0673 19.5103 L 37.8422 15.5461 L 41.6743 22.5937 L 44.4493 19.5984 L 47.7529 22.1532 L 51.2766 18.1008 L 54.4921 19.5544 L 54.4921 27.0424 L 26.0816 27.0424 L 26.0816 19.5544 Z " stroke-width="0.8809447288513184"/>
  </g>
  <g id="ID0.3295036111958325">
    <path id="ID0.03096994338557124" fill="#FF5695" stroke="none" stroke-linecap="round" d="M 63.0044 6.7834 L 69.6532 24.4044 L 56.6827 24.2227 L 63.0044 6.7834 Z " stroke-width="0.7266398072242737"/>
    <path id="ID0.14459503954276443" fill="#000000" stroke="none" stroke-linecap="round" d="M 51.8099 19.5621 L 53.9056 20.4093 L 56.7147 17.7339 L 60.0143 19.9634 L 65.8109 18.0906 L 68.3079 18.9824 L 72.1872 12.6507 L 76.5123 20.3201 L 80.57 19.5621 L 80.57 27.1422 L 51.8099 27.1422 L 51.8099 19.5621 Z " stroke-width="0.891785204410553"/>
  </g>
  <path id="ID0.14459503954276443" fill="#000000" stroke="none" stroke-linecap="round" d="M 78.5045 19.8477 L 80.7843 20.708 L 85.1718 11.847 L 89.9894 19.4175 L 93.1294 14.9871 L 96.1405 18.2992 L 99.2805 16.7076 L 101.9474 20.794 L 106.2488 19.8477 L 106.2488 27.1601 L 78.5045 27.1601 L 78.5045 19.8477 Z " stroke-width="0.860288143157959"/>
</svg>