<svg xmlns="http://www.w3.org/2000/svg" xmlns:xlink="http://www.w3.org/1999/xlink" version="1.1" width="6.073895454406738" height="15.869094848632812" viewBox="0.1950523853302002 0.058652400970458984 6.073895454406738 15.869094848632812">
  <!-- Exported by Scratch - http://scratch.mit.edu/ -->
  <path id="ID0.09002829575911164" fill="#000000" stroke="none" stroke-linecap="round" d="M 1.4 0.75 L 4.6 0.75 L 3 12.15 L 1.4 0.75 Z " stroke-width="1"/>
  <path id="ID0.3088560909964144" fill="none" stroke="#FFFFFF" stroke-width="1.382695198059082" d="M 3.232 10.5451 C 3.8791 10.5451 4.4656 10.808 4.8902 11.2325 C 5.3147 11.6572 5.5776 12.2437 5.5776 12.8908 C 5.5776 13.5379 5.3147 14.1243 4.8902 14.549 C 4.4656 14.9735 3.8791 15.2364 3.232 15.2364 C 2.5849 15.2364 1.9984 14.9735 1.5738 14.549 C 1.1493 14.1243 0.8864 13.5379 0.8864 12.8908 C 0.8864 12.2437 1.1493 11.6572 1.5738 11.2325 C 1.9984 10.808 2.5849 10.5451 3.232 10.5451 Z "/>
</svg>