<svg xmlns="http://www.w3.org/2000/svg" xmlns:xlink="http://www.w3.org/1999/xlink" version="1.1" width="106.7863998413086" height="16.82140064239502" viewBox="-0.03759998083114624 -0.16130000352859497 106.7863998413086 16.82140064239502">
  <!-- Exported by Scratch - http://scratch.mit.edu/ -->
  <path id="ID0.14459503954276443" fill="#000000" stroke="none" stroke-linecap="round" d="M 0.4624 8.8638 L 4.0856 10.2279 L 7.4956 4.6013 L 10.9057 9.1622 L 13.8895 5.9653 L 16.5323 7.4572 L 21.5621 0.3387 L 26.0378 9.1622 L 27.9559 8.8638 L 27.9559 16.1102 L 0.4624 16.1102 L 0.4624 8.8638 Z " stroke-width="0.8525108695030212"/>
  <path id="ID0.14459503954276443" fill="#000000" stroke="none" stroke-linecap="round" d="M 26.0816 8.5544 L 28.1518 9.3913 L 31.5435 3.2247 L 35.0673 8.5103 L 37.8422 4.5461 L 41.6743 11.5937 L 44.4493 8.5984 L 47.7529 11.1532 L 51.2766 7.1008 L 54.4921 8.5544 L 54.4921 16.0424 L 26.0816 16.0424 L 26.0816 8.5544 Z " stroke-width="0.8809447288513184"/>
  <path id="ID0.14459503954276443" fill="#000000" stroke="none" stroke-linecap="round" d="M 51.8099 8.5121 L 53.9056 9.3593 L 56.7147 6.6839 L 60.0143 8.9134 L 65.8109 7.0406 L 68.3079 7.9324 L 72.1872 1.6007 L 76.5123 9.2701 L 80.57 8.5121 L 80.57 16.0922 L 51.8099 16.0922 L 51.8099 8.5121 Z " stroke-width="0.891785204410553"/>
  <path id="ID0.14459503954276443" fill="#000000" stroke="none" stroke-linecap="round" d="M 78.5045 8.8477 L 80.7843 9.708 L 85.1718 0.847 L 89.9894 8.4175 L 93.1294 3.9871 L 96.1405 7.2992 L 99.2805 5.7076 L 101.9474 9.794 L 106.2488 8.8477 L 106.2488 16.1601 L 78.5045 16.1601 L 78.5045 8.8477 Z " stroke-width="0.860288143157959"/>
</svg>