<svg xmlns="http://www.w3.org/2000/svg" xmlns:xlink="http://www.w3.org/1999/xlink" version="1.1" width="8.792030245065689" height="42.25102940201759" viewBox="0.6386850327253342 0.7496850937604904 8.792030245065689 42.25102940201759">
  <!-- Exported by Scratch - http://scratch.mit.edu/ -->
  <path id="ID0.09002829575911164" fill="#000000" stroke="none" stroke-linecap="round" d="M 3.25 42 L 6.45 42 L 5.1 5.55 L 3.25 42 Z " stroke-width="1"/>
  <path id="ID0.3088560909964144" fill="none" stroke="#FFFFFF" stroke-width="2.001429945230484" d="M 5.0347 8.541 C 5.9714 8.541 6.8203 8.1604 7.435 7.546 C 8.0494 6.9313 8.43 6.0824 8.43 5.1457 C 8.43 4.209 8.0494 3.3601 7.435 2.7454 C 6.8203 2.131 5.9714 1.7504 5.0347 1.7504 C 4.098 1.7504 3.2492 2.131 2.6344 2.7454 C 2.02 3.3601 1.6394 4.209 1.6394 5.1457 C 1.6394 6.0824 2.02 6.9313 2.6344 7.546 C 3.2492 8.1604 4.098 8.541 5.0347 8.541 Z "/>
</svg>