<svg xmlns="http://www.w3.org/2000/svg" xmlns:xlink="http://www.w3.org/1999/xlink" version="1.1" width="13.612600326538086" height="13.612600326538086" viewBox="0.21979999542236328 0.04610002040863037 13.612600326538086 13.612600326538086">
  <!-- Exported by Scratch - http://scratch.mit.edu/ -->
  <path id="ID0.16053227661177516" fill="none" stroke="#FFFF00" stroke-width="0.7761628031730652" d="M 7.0261 0.5461 C 8.7663 0.5461 10.3426 1.2524 11.4844 2.3941 C 12.6261 3.5359 13.3324 5.1122 13.3324 6.8524 C 13.3324 8.5926 12.6261 10.1689 11.4844 11.3107 C 10.3426 12.4524 8.7663 13.1587 7.0261 13.1587 C 5.2859 13.1587 3.7095 12.4524 2.5678 11.3107 C 1.4261 10.1689 0.7198 8.5926 0.7198 6.8524 C 0.7198 5.1122 1.4261 3.5359 2.5678 2.3941 C 3.7095 1.2524 5.2859 0.5461 7.0261 0.5461 Z "/>
  <path id="ID0.3912192960269749" fill="#FFFF00" stroke="none" d="M 7.05 2.8 C 8.154 2.8 9.154 3.248 9.878 3.972 C 10.602 4.696 11.05 5.696 11.05 6.8 C 11.05 7.904 10.602 8.904 9.878 9.628 C 9.154 10.352 8.154 10.8 7.05 10.8 C 5.946 10.8 4.946 10.352 4.222 9.628 C 3.498 8.904 3.05 7.904 3.05 6.8 C 3.05 5.696 3.498 4.696 4.222 3.972 C 4.946 3.248 5.946 2.8 7.05 2.8 Z " stroke-width="1"/>
</svg>