<svg xmlns="http://www.w3.org/2000/svg" xmlns:xlink="http://www.w3.org/1999/xlink" version="1.1" width="24.737499237060547" height="24.737600326538086" viewBox="0.834149956703186 0.8347500562667847 24.737499237060547 24.737600326538086">
  <!-- Exported by Scratch - http://scratch.mit.edu/ -->
  <path id="ID0.16053227661177516" fill="none" stroke="#FFFF00" stroke-width="1.4338486194610596" d="M 13.2029 1.5535 C 16.4176 1.5535 19.3297 2.8583 21.4389 4.9675 C 23.5481 7.0767 24.8529 9.9889 24.8529 13.2036 C 24.8529 16.4182 23.5481 19.3304 21.4389 21.4396 C 19.3297 23.5488 16.4176 24.8536 13.2029 24.8536 C 9.9882 24.8536 7.0761 23.5488 4.9669 21.4396 C 2.8577 19.3304 1.5529 16.4182 1.5529 13.2036 C 1.5529 9.9889 2.8577 7.0767 4.9669 4.9675 C 7.0761 2.8583 9.9882 1.5535 13.2029 1.5535 Z "/>
  <path id="ID0.3912192960269749" fill="#FFFF00" stroke="none" d="M 13.1875 7.4469 C 14.7745 7.4469 16.212 8.0909 17.2527 9.1316 C 18.2935 10.1724 18.9375 11.6099 18.9375 13.1969 C 18.9375 14.7839 18.2935 16.2214 17.2527 17.2621 C 16.212 18.3029 14.7745 18.9469 13.1875 18.9469 C 11.6005 18.9469 10.163 18.3029 9.1223 17.2621 C 8.0815 16.2214 7.4375 14.7839 7.4375 13.1969 C 7.4375 11.6099 8.0815 10.1724 9.1223 9.1316 C 10.163 8.0909 11.6005 7.4469 13.1875 7.4469 Z " stroke-width="1.4375"/>
</svg>