<svg xmlns="http://www.w3.org/2000/svg" xmlns:xlink="http://www.w3.org/1999/xlink" version="1.1" width="22.561827659606934" height="22.5618257522583" viewBox="0.8769361972808838 0.613436222076416 22.561827659606934 22.5618257522583">
  <!-- Exported by Scratch - http://scratch.mit.edu/ -->
  <path id="ID0.16053227661177516" fill="none" stroke="#FFFF00" stroke-width="2.472527503967285" d="M 12.1578 1.8497 C 14.9295 1.8497 17.4404 2.9747 19.2589 4.7933 C 21.0775 6.6118 22.2025 9.1227 22.2025 11.8944 C 22.2025 14.6661 21.0775 17.1769 19.2589 18.9955 C 17.4404 20.814 14.9295 21.939 12.1578 21.939 C 9.3861 21.939 6.8753 20.814 5.0567 18.9955 C 3.2382 17.1769 2.1132 14.6661 2.1132 11.8944 C 2.1132 9.1227 3.2382 6.6118 5.0567 4.7933 C 6.8753 2.9747 9.3861 1.8497 12.1578 1.8497 Z "/>
  <path id="ID0.3912192960269749" fill="#FFFF00" stroke="none" d="M 12.05 7.8 C 13.154 7.8 14.154 8.248 14.878 8.972 C 15.602 9.696 16.05 10.696 16.05 11.8 C 16.05 12.904 15.602 13.904 14.878 14.628 C 14.154 15.352 13.154 15.8 12.05 15.8 C 10.946 15.8 9.946 15.352 9.222 14.628 C 8.498 13.904 8.05 12.904 8.05 11.8 C 8.05 10.696 8.498 9.696 9.222 8.972 C 9.946 8.248 10.946 7.8 12.05 7.8 Z " stroke-width="1"/>
</svg>