<svg xmlns="http://www.w3.org/2000/svg" xmlns:xlink="http://www.w3.org/1999/xlink" version="1.1" width="14.43206611275673" height="45.690364986658096" viewBox="0.9664169996976852 0.9523169249296188 14.43206611275673 45.690364986658096">
  <!-- Exported by Scratch - http://scratch.mit.edu/ -->
  <path id="ID0.09002829575911164" fill="#000000" stroke="none" stroke-linecap="round" d="M 6.25 45 L 9.45 45 L 8.1 8.55 L 6.25 45 Z " stroke-width="1"/>
  <path id="ID0.3088560909964144" fill="none" stroke="#FFFFFF" stroke-width="3.2853662073612213" d="M 8.1825 13.7418 C 9.72 13.7418 11.1135 13.1171 12.1226 12.1085 C 13.1312 11.0994 13.7558 9.706 13.7558 8.1684 C 13.7558 6.6309 13.1312 5.2374 12.1226 4.2283 C 11.1135 3.2197 9.72 2.595 8.1825 2.595 C 6.6449 2.595 5.2514 3.2197 4.2424 4.2283 C 3.2338 5.2374 2.6091 6.6309 2.6091 8.1684 C 2.6091 9.706 3.2338 11.0994 4.2424 12.1085 C 5.2514 13.1171 6.6449 13.7418 8.1825 13.7418 Z "/>
</svg>