<?xml version="1.0" encoding="utf-8"?><!-- Generator: Adobe Illustrator 16.0.0, SVG Export Plug-In . SVG Version: 6.00 Build 0)  --><!DOCTYPE svg PUBLIC "-//W3C//DTD SVG 1.1//EN" "http://www.w3.org/Graphics/SVG/1.1/DTD/svg11.dtd"><svg xmlns="http://www.w3.org/2000/svg" xmlns:xlink="http://www.w3.org/1999/xlink" version="1.1" id="Layer_2" x="0px" y="0px" width="43.5" height="68" viewBox="62.5 133 43.5 68" enable-background="new 0 0 160 256" xml:space="preserve">
<g>
	<path d="M93,134H76c-6.729,0-12,14.495-12,33s5.271,33,12,33h17c6.729,0,12-14.495,12-33S99.729,134,93,134z" stroke-width="1"/>
	<path fill="#FF99F1" d="M75,135c-6.352,0-11.5,14.327-11.5,32s5.148,32,11.5,32s11.5-14.327,11.5-32S81.352,135,75,135z M75,192   c-2.177,0-7.5-8.761-7.5-25s5.323-25,7.5-25s7.5,8.761,7.5,25S77.177,192,75,192z" stroke-width="1"/>
	<ellipse fill="none" stroke="#FFFFFF" stroke-width="2" stroke-miterlimit="10" cx="75" cy="167" rx="11" ry="32"/>
</g>
</svg>