<svg xmlns="http://www.w3.org/2000/svg" xmlns:xlink="http://www.w3.org/1999/xlink" version="1.1" width="15.935492217540741" height="21.839292228221893" viewBox="0.0920042097568512 -1.0637958943843842 15.935492217540741 21.839292228221893">
  <!-- Exported by Scratch - http://scratch.mit.edu/ -->
  <path id="ID0.09002829575911164" fill="#000000" stroke="none" stroke-linecap="round" d="M 6.4 0.75 L 9.6 0.75 L 8 12.15 L 6.4 0.75 Z " stroke-width="1"/>
  <path id="ID0.3088560909964144" fill="none" stroke="#FFFFFF" stroke-width="3.6275917887687683" d="M 8.0598 6.6538 C 9.7575 6.6538 11.2961 7.3436 12.4103 8.4573 C 13.524 9.5715 14.2137 11.1101 14.2137 12.8078 C 14.2137 14.5055 13.524 16.0441 12.4103 17.1583 C 11.2961 18.272 9.7575 18.9617 8.0598 18.9617 C 6.3621 18.9617 4.8235 18.272 3.7093 17.1583 C 2.5956 16.0441 1.9058 14.5055 1.9058 12.8078 C 1.9058 11.1101 2.5956 9.5715 3.7093 8.4573 C 4.8235 7.3436 6.3621 6.6538 8.0598 6.6538 Z "/>
</svg>