<svg xmlns="http://www.w3.org/2000/svg" xmlns:xlink="http://www.w3.org/1999/xlink" version="1.1" width="15.667999267578125" height="61.867000579833984" viewBox="0.16600000858306885 -0.19999998807907104 15.667999267578125 61.867000579833984">
  <defs>
    <linearGradient id="grad_1" x1="32" y1="159.1665" x2="32" y2="98.2998" gradientUnits="userSpaceOnUse">
      <stop offset="0" stop-color="#FFDC3C"/>
      <stop offset="1" stop-color="#FFDC3C" stop-opacity="0"/>
    </linearGradient>
  <linearGradient id="grad_1-,0,0,1,-24,-98" x1="8" y1="61.1665" x2="8" y2="0.2998" gradientUnits="userSpaceOnUse">
      <stop offset="0" stop-color="#FFDC3C"/>
      <stop offset="1" stop-color="#FFDC3C" stop-opacity="0"/>
    </linearGradient></defs>
  <!-- Exported by Scratch - http://scratch.mit.edu/ -->
  <g id="ID0.04411588842049241">
    <path id="ID0.605877926107496" fill="url(#grad_1-,0,0,1,-24,-98)" d="M 15.3 61.167 C 15.31 61.111 15.334 61.06 15.334 61 C 15.334 60.448 14.886 60 14.334 60 L 11.2 60 L 11.2 58.292 C 11.2 56.811 10.115 55.586 8.7 55.35 L 8.7 53.651 C 10.115 53.415 11.2 52.19 11.2 50.709 L 11.2 47.292 C 11.2 45.811 10.115 44.586 8.7 44.35 L 8.7 42.651 C 10.115 42.415 11.2 41.19 11.2 39.709 L 11.2 36.292 C 11.2 34.811 10.115 33.586 8.7 33.35 L 8.7 31.651 C 10.115 31.415 11.2 30.19 11.2 28.709 L 11.2 25.292 C 11.2 23.811 10.115 22.586 8.7 22.35 L 8.7 20.651 C 10.115 20.415 11.2 19.19 11.2 17.709 L 11.2 14.292 C 11.2 12.811 10.115 11.586 8.7 11.35 L 8.7 9.651 C 10.115 9.415 11.2 8.19 11.2 6.709 L 11.2 3.292 C 11.2 1.643 9.858 0.3 8.208 0.3 L 7.791 0.3 C 6.142 0.3 4.799 1.642 4.799 3.292 L 4.799 6.709 C 4.799 8.19 5.884 9.415 7.299 9.651 L 7.299 11.35 C 5.884 11.586 4.799 12.811 4.799 14.292 L 4.799 17.709 C 4.799 19.19 5.884 20.415 7.299 20.651 L 7.299 22.35 C 5.884 22.586 4.799 23.811 4.799 25.292 L 4.799 28.709 C 4.799 30.19 5.884 31.415 7.299 31.651 L 7.299 33.35 C 5.884 33.586 4.799 34.811 4.799 36.292 L 4.799 39.709 C 4.799 41.19 5.884 42.415 7.299 42.651 L 7.299 44.35 C 5.884 44.586 4.799 45.811 4.799 47.292 L 4.799 50.709 C 4.799 52.19 5.884 53.415 7.299 53.651 L 7.299 55.35 C 5.884 55.586 4.799 56.811 4.799 58.292 L 4.799 60 L 1.666 60 C 1.114 60 0.666 60.448 0.666 61 C 0.666 61.059 0.69 61.11 0.7 61.167 L 15.3 61.167 Z M 6.2 6.708 L 6.2 3.291 C 6.2 2.414 6.914 1.7 7.791 1.7 L 8.208 1.7 C 9.085 1.7 9.799 2.414 9.799 3.291 L 9.799 6.708 C 9.799 7.413 9.335 8.005 8.699 8.213 L 8.699 7.5 C 8.699 7.113 8.386 6.8 7.999 6.8 C 7.612 6.8 7.299 7.113 7.299 7.5 L 7.299 8.214 C 6.664 8.006 6.2 7.413 6.2 6.708 Z M 6.2 17.708 L 6.2 14.291 C 6.2 13.586 6.664 12.994 7.3 12.786 L 7.3 13.5 C 7.3 13.887 7.613 14.2 8 14.2 C 8.387 14.2 8.7 13.887 8.7 13.5 L 8.7 12.786 C 9.336 12.994 9.8 13.587 9.8 14.291 L 9.8 17.708 C 9.8 18.413 9.336 19.005 8.7 19.213 L 8.7 18.5 C 8.7 18.113 8.387 17.8 8 17.8 C 7.613 17.8 7.3 18.113 7.3 18.5 L 7.3 19.214 C 6.664 19.006 6.2 18.413 6.2 17.708 Z M 6.2 28.708 L 6.2 25.291 C 6.2 24.586 6.664 23.994 7.3 23.786 L 7.3 24.5 C 7.3 24.887 7.613 25.2 8 25.2 C 8.387 25.2 8.7 24.887 8.7 24.5 L 8.7 23.786 C 9.336 23.994 9.8 24.587 9.8 25.291 L 9.8 28.708 C 9.8 29.413 9.336 30.005 8.7 30.213 L 8.7 29.5 C 8.7 29.113 8.387 28.8 8 28.8 C 7.613 28.8 7.3 29.113 7.3 29.5 L 7.3 30.214 C 6.664 30.006 6.2 29.413 6.2 28.708 Z M 6.2 39.708 L 6.2 36.291 C 6.2 35.586 6.664 34.994 7.3 34.786 L 7.3 35.5 C 7.3 35.887 7.613 36.2 8 36.2 C 8.387 36.2 8.7 35.887 8.7 35.5 L 8.7 34.786 C 9.336 34.994 9.8 35.587 9.8 36.291 L 9.8 39.708 C 9.8 40.413 9.336 41.005 8.7 41.213 L 8.7 40.5 C 8.7 40.113 8.387 39.8 8 39.8 C 7.613 39.8 7.3 40.113 7.3 40.5 L 7.3 41.214 C 6.664 41.006 6.2 40.413 6.2 39.708 Z M 6.2 50.708 L 6.2 47.291 C 6.2 46.586 6.664 45.994 7.3 45.786 L 7.3 46.5 C 7.3 46.887 7.613 47.2 8 47.2 C 8.387 47.2 8.7 46.887 8.7 46.5 L 8.7 45.786 C 9.336 45.994 9.8 46.587 9.8 47.291 L 9.8 50.708 C 9.8 51.413 9.336 52.005 8.7 52.213 L 8.7 51.5 C 8.7 51.113 8.387 50.8 8 50.8 C 7.613 50.8 7.3 51.113 7.3 51.5 L 7.3 52.214 C 6.664 52.006 6.2 51.413 6.2 50.708 Z M 6.2 58.292 C 6.2 57.587 6.664 56.995 7.3 56.787 L 7.3 57.501 C 7.3 57.888 7.613 58.201 8 58.201 C 8.387 58.201 8.7 57.888 8.7 57.501 L 8.7 56.787 C 9.336 56.995 9.8 57.588 9.8 58.292 L 9.8 60 L 6.2 60 L 6.2 58.292 Z " stroke-width="1"/>
  </g>
</svg>