<svg xmlns="http://www.w3.org/2000/svg" xmlns:xlink="http://www.w3.org/1999/xlink" version="1.1" width="106.7863998413086" height="26.00200080871582" viewBox="-0.03759998083114624 -0.3418999910354614 106.7863998413086 26.00200080871582">
  <!-- Exported by Scratch - http://scratch.mit.edu/ -->
  <path id="ID0.03096994338557124" fill="#FF5695" stroke="none" stroke-linecap="round" d="M 27.8044 6.1834 L 34.4532 23.8044 L 21.4827 23.6227 L 27.8044 6.1834 Z " stroke-width="0.7266398072242737"/>
  <path id="ID0.03096994338557124" fill="#FF5695" stroke="none" stroke-linecap="round" d="M 78.0114 0.1581 L 85.883 21.0201 L 70.5269 20.805 L 78.0114 0.1581 Z " stroke-width="0.860288143157959"/>
  <path id="ID0.03096994338557124" fill="#FF5695" stroke="none" stroke-linecap="round" d="M 95.4044 4.2834 L 102.0532 21.9044 L 89.0827 21.7227 L 95.4044 4.2834 Z " stroke-width="0.7266398072242737"/>
  <path id="ID0.14459503954276443" fill="#000000" stroke="none" stroke-linecap="round" d="M 0.4624 17.8638 L 4.0856 19.2279 L 7.4956 13.6013 L 10.9057 18.1622 L 13.8895 14.9653 L 16.5323 16.4572 L 21.5621 9.3387 L 26.0378 18.1622 L 27.9559 17.8638 L 27.9559 25.1102 L 0.4624 25.1102 L 0.4624 17.8638 Z " stroke-width="0.8525108695030212"/>
  <path id="ID0.14459503954276443" fill="#000000" stroke="none" stroke-linecap="round" d="M 26.0816 17.5544 L 28.1518 18.3913 L 31.5435 12.2247 L 35.0673 17.5103 L 37.8422 13.5461 L 41.6743 20.5937 L 44.4493 17.5984 L 47.7529 20.1532 L 51.2766 16.1008 L 54.4921 17.5544 L 54.4921 25.0424 L 26.0816 25.0424 L 26.0816 17.5544 Z " stroke-width="0.8809447288513184"/>
  <path id="ID0.14459503954276443" fill="#000000" stroke="none" stroke-linecap="round" d="M 51.8099 17.5121 L 53.9056 18.3593 L 56.7147 15.6839 L 60.0143 17.9134 L 65.8109 16.0406 L 68.3079 16.9324 L 72.1872 10.6007 L 76.5123 18.2701 L 80.57 17.5121 L 80.57 25.0922 L 51.8099 25.0922 L 51.8099 17.5121 Z " stroke-width="0.891785204410553"/>
  <path id="ID0.14459503954276443" fill="#000000" stroke="none" stroke-linecap="round" d="M 78.5045 17.8477 L 80.7843 18.708 L 85.1718 9.847 L 89.9894 17.4175 L 93.1294 12.9871 L 96.1405 16.2992 L 99.2805 14.7076 L 101.9474 18.794 L 106.2488 17.8477 L 106.2488 25.1601 L 78.5045 25.1601 L 78.5045 17.8477 Z " stroke-width="0.860288143157959"/>
</svg>