<svg xmlns="http://www.w3.org/2000/svg" xmlns:xlink="http://www.w3.org/1999/xlink" version="1.1" width="4.200000047683716" height="38.86240005493164" viewBox="-0.25 0.6375999450683594 4.200000047683716 38.86240005493164">
  <!-- Exported by Scratch - http://scratch.mit.edu/ -->
  <path id="ID0.09002829575911164" fill="#000000" stroke="none" stroke-linecap="round" d="M 0.25 39 L 3.45 39 L 2.1 2.55 L 0.25 39 Z " stroke-width="1"/>
  <path id="ID0.3088560909964144" fill="none" stroke="#FFFFFF" stroke-width="0.5344727635383606" d="M 2.1652 2.951 C 2.4154 2.951 2.6421 2.8494 2.8062 2.6853 C 2.9703 2.5211 3.0719 2.2944 3.0719 2.0443 C 3.0719 1.7942 2.9703 1.5675 2.8062 1.4033 C 2.6421 1.2392 2.4154 1.1376 2.1652 1.1376 C 1.9151 1.1376 1.6884 1.2392 1.5243 1.4033 C 1.3602 1.5675 1.2585 1.7942 1.2585 2.0443 C 1.2585 2.2944 1.3602 2.5211 1.5243 2.6853 C 1.6884 2.8494 1.9151 2.951 2.1652 2.951 Z "/>
</svg>