<svg xmlns="http://www.w3.org/2000/svg" xmlns:xlink="http://www.w3.org/1999/xlink" version="1.1" width="13.537647545337677" height="20.543648064136505" viewBox="0.43602630496025085 -0.7908736765384674 13.537647545337677 20.543648064136505">
  <!-- Exported by Scratch - http://scratch.mit.edu/ -->
  <path id="ID0.09002829575911164" fill="#000000" stroke="none" stroke-linecap="round" d="M 5.4 0.75 L 8.6 0.75 L 7 12.15 L 5.4 0.75 Z " stroke-width="1"/>
  <path id="ID0.3088560909964144" fill="none" stroke="#FFFFFF" stroke-width="3.081747353076935" d="M 7.2049 7.7559 C 8.6471 7.7559 9.9542 8.3419 10.9008 9.288 C 11.8469 10.2345 12.4328 11.5416 12.4328 12.9839 C 12.4328 14.4262 11.8469 15.7333 10.9008 16.6798 C 9.9542 17.6259 8.6471 18.2119 7.2049 18.2119 C 5.7626 18.2119 4.4555 17.6259 3.509 16.6798 C 2.5629 15.7333 1.9769 14.4262 1.9769 12.9839 C 1.9769 11.5416 2.5629 10.2345 3.509 9.288 C 4.4555 8.3419 5.7626 7.7559 7.2049 7.7559 Z "/>
</svg>