<svg xmlns="http://www.w3.org/2000/svg" xmlns:xlink="http://www.w3.org/1999/xlink" version="1.1" width="23.68461835384369" height="23.684519171714783" viewBox="0.2537907361984253 0.07869064807891846 23.68461835384369 23.684519171714783">
  <!-- Exported by Scratch - http://scratch.mit.edu/ -->
  <path id="ID0.16053227661177516" fill="none" stroke="#FFFF00" stroke-width="1.3730186223983765" d="M 12.0961 0.7652 C 15.1744 0.7652 17.963 2.0146 19.9827 4.0343 C 22.0024 6.0541 23.2519 8.8427 23.2519 11.921 C 23.2519 14.9993 22.0024 17.7879 19.9827 19.8076 C 17.963 21.8273 15.1744 23.0767 12.0961 23.0767 C 9.0178 23.0767 6.2292 21.8273 4.2095 19.8076 C 2.1898 17.7879 0.9403 14.9993 0.9403 11.921 C 0.9403 8.8427 2.1898 6.0541 4.2095 4.0343 C 6.2292 2.0146 9.0178 0.7652 12.0961 0.7652 Z "/>
  <path id="ID0.3912192960269749" fill="#FFFF00" stroke="none" d="M 12.0875 7.2344 C 13.3985 7.2344 14.586 7.7664 15.4457 8.6261 C 16.3055 9.4859 16.8375 10.6734 16.8375 11.9844 C 16.8375 13.2954 16.3055 14.4829 15.4457 15.3426 C 14.586 16.2024 13.3985 16.7344 12.0875 16.7344 C 10.7765 16.7344 9.589 16.2024 8.7292 15.3426 C 7.8695 14.4829 7.3375 13.2954 7.3375 11.9844 C 7.3375 10.6734 7.8695 9.4859 8.7292 8.6261 C 9.589 7.7664 10.7765 7.2344 12.0875 7.2344 Z " stroke-width="1.1875"/>
</svg>