<svg xmlns="http://www.w3.org/2000/svg" xmlns:xlink="http://www.w3.org/1999/xlink" version="1.1" width="17.25" height="17.25" viewBox="0.5 0.25 17.25 17.25">
  <!-- Exported by Scratch - http://scratch.mit.edu/ -->
  <path id="ID0.16053227661177516" fill="none" stroke="#FFFF00" stroke-width="1" d="M 9.125 0.75 C 11.367 0.75 13.398 1.66 14.869 3.131 C 16.34 4.602 17.25 6.633 17.25 8.875 C 17.25 11.117 16.34 13.148 14.869 14.619 C 13.398 16.09 11.367 17 9.125 17 C 6.883 17 4.852 16.09 3.381 14.619 C 1.91 13.148 1 11.117 1 8.875 C 1 6.633 1.91 4.602 3.381 3.131 C 4.852 1.66 6.883 0.75 9.125 0.75 Z "/>
  <path id="ID0.3912192960269749" fill="#FFFF00" stroke="none" d="M 9.1 4.8 C 10.204 4.8 11.204 5.248 11.928 5.972 C 12.652 6.696 13.1 7.696 13.1 8.8 C 13.1 9.904 12.652 10.904 11.928 11.628 C 11.204 12.352 10.204 12.8 9.1 12.8 C 7.996 12.8 6.996 12.352 6.272 11.628 C 5.548 10.904 5.1 9.904 5.1 8.8 C 5.1 7.696 5.548 6.696 6.272 5.972 C 6.996 5.248 7.996 4.8 9.1 4.8 Z " stroke-width="1"/>
</svg>