<svg xmlns="http://www.w3.org/2000/svg" xmlns:xlink="http://www.w3.org/1999/xlink" version="1.1" width="4.199999809265137" height="14.021200180053711" viewBox="-0.09999999403953552 0.25 4.199999809265137 14.021200180053711">
  <!-- Exported by Scratch - http://scratch.mit.edu/ -->
  <path id="ID0.09002829575911164" fill="#000000" stroke="none" stroke-linecap="round" d="M 0.4 0.75 L 3.6 0.75 L 2 12.15 L 0.4 0.75 Z " stroke-width="1"/>
  <path id="ID0.3088560909964144" fill="none" stroke="#FFFFFF" stroke-width="0.4859113320708275" d="M 1.8511 12.1225 C 2.0785 12.1225 2.2846 12.2149 2.4339 12.3641 C 2.5831 12.5133 2.6755 12.7194 2.6755 12.9468 C 2.6755 13.1742 2.5831 13.3803 2.4339 13.5296 C 2.2846 13.6788 2.0785 13.7712 1.8511 13.7712 C 1.6237 13.7712 1.4176 13.6788 1.2684 13.5296 C 1.1192 13.3803 1.0268 13.1742 1.0268 12.9468 C 1.0268 12.7194 1.1192 12.5133 1.2684 12.3641 C 1.4176 12.2149 1.6237 12.1225 1.8511 12.1225 Z "/>
</svg>