<svg xmlns="http://www.w3.org/2000/svg" xmlns:xlink="http://www.w3.org/1999/xlink" version="1.1" width="81.10759735107422" height="24.934101104736328" viewBox="-0.03759998083114624 -0.44189999252557755 81.10759735107422 24.934101104736328">
  <!-- Exported by Scratch - http://scratch.mit.edu/ -->
  <path id="ID0.03096994338557124" fill="#FF5695" stroke="none" stroke-linecap="round" d="M 17.7044 2.5334 L 24.3532 20.1544 L 11.3827 19.9727 L 17.7044 2.5334 Z " stroke-width="0.7266398072242737"/>
  <path id="ID0.03096994338557124" fill="#FF5695" stroke="none" stroke-linecap="round" d="M 59.2114 0.0581 L 67.083 20.9201 L 51.7269 20.705 L 59.2114 0.0581 Z " stroke-width="0.860288143157959"/>
  <path id="ID0.14459503954276443" fill="#000000" stroke="none" stroke-linecap="round" d="M 0.4624 16.6638 L 4.0856 18.0279 L 7.4956 12.4013 L 10.9057 16.9622 L 13.8895 13.7653 L 16.5323 15.2572 L 21.5621 8.1387 L 26.0378 16.9622 L 27.9559 16.6638 L 27.9559 23.9102 L 0.4624 23.9102 L 0.4624 16.6638 Z " stroke-width="0.8525108695030212"/>
  <path id="ID0.14459503954276443" fill="#000000" stroke="none" stroke-linecap="round" d="M 26.0816 16.4544 L 28.1518 17.2913 L 31.4994 15.0008 L 35.728 19.0091 L 38.7232 17.027 L 41.6743 19.4937 L 44.4493 16.4984 L 47.7529 19.0532 L 51.2766 15.0008 L 54.4921 16.4544 L 54.4921 23.9424 L 26.0816 23.9424 L 26.0816 16.4544 Z " stroke-width="0.8809447288513184"/>
  <path id="ID0.14459503954276443" fill="#000000" stroke="none" stroke-linecap="round" d="M 51.8099 16.4121 L 53.9056 17.2593 L 56.7147 14.5839 L 60.0143 16.8134 L 65.8109 14.9406 L 68.3079 15.8324 L 72.1872 9.5007 L 76.5123 17.1701 L 80.57 16.4121 L 80.57 23.9922 L 51.8099 23.9922 L 51.8099 16.4121 Z " stroke-width="0.891785204410553"/>
</svg>