<svg xmlns="http://www.w3.org/2000/svg" xmlns:xlink="http://www.w3.org/1999/xlink" version="1.1" width="12.288853019475937" height="44.52185282111168" viewBox="0.0682733803987503 0.876873329281807 12.288853019475937 44.52185282111168">
  <!-- Exported by Scratch - http://scratch.mit.edu/ -->
  <path id="ID0.09002829575911164" fill="#000000" stroke="none" stroke-linecap="round" d="M 4.25 44 L 7.45 44 L 6.1 7.55 L 4.25 44 Z " stroke-width="1"/>
  <path id="ID0.3088560909964144" fill="none" stroke="#FFFFFF" stroke-width="2.7974532544612885" d="M 6.2127 11.7669 C 7.5219 11.7669 8.7085 11.235 9.5677 10.3762 C 10.4265 9.517 10.9584 8.3305 10.9584 7.0213 C 10.9584 5.7121 10.4265 4.5255 9.5677 3.6663 C 8.7085 2.8075 7.5219 2.2756 6.2127 2.2756 C 4.9035 2.2756 3.717 2.8075 2.8578 3.6663 C 1.999 4.5255 1.467 5.7121 1.467 7.0213 C 1.467 8.3305 1.999 9.517 2.8578 10.3762 C 3.717 11.235 4.9035 11.7669 6.2127 11.7669 Z "/>
</svg>