<svg xmlns="http://www.w3.org/2000/svg" xmlns:xlink="http://www.w3.org/1999/xlink" version="1.1" width="10.290582776069641" height="18.567083477973938" viewBox="0.8800086379051208 -0.42129141092300415 10.290582776069641 18.567083477973938">
  <!-- Exported by Scratch - http://scratch.mit.edu/ -->
  <path id="ID0.09002829575911164" fill="#000000" stroke="none" stroke-linecap="round" d="M 4.4 0.75 L 7.6 0.75 L 6 12.15 L 4.4 0.75 Z " stroke-width="1"/>
  <path id="ID0.3088560909964144" fill="none" stroke="#FFFFFF" stroke-width="2.3425828218460083" d="M 6.0253 9.0265 C 7.1216 9.0265 8.1152 9.4719 8.8347 10.1911 C 9.5539 10.9106 9.9993 11.9042 9.9993 13.0005 C 9.9993 14.0968 9.5539 15.0904 8.8347 15.8099 C 8.1152 16.5291 7.1216 16.9745 6.0253 16.9745 C 4.929 16.9745 3.9354 16.5291 3.2159 15.8099 C 2.4967 15.0904 2.0513 14.0968 2.0513 13.0005 C 2.0513 11.9042 2.4967 10.9106 3.2159 10.1911 C 3.9354 9.4719 4.929 9.0265 6.0253 9.0265 Z "/>
</svg>