<svg xmlns="http://www.w3.org/2000/svg" xmlns:xlink="http://www.w3.org/1999/xlink" version="1.1" width="15.935491263866425" height="46.58929222822189" viewBox="0.24200406670570374 0.22450414299964905 15.935491263866425 46.58929222822189">
  <!-- Exported by Scratch - http://scratch.mit.edu/ -->
  <path id="ID0.09002829575911164" fill="#000000" stroke="none" stroke-linecap="round" d="M 6.25 45 L 9.45 45 L 8.1 8.55 L 6.25 45 Z " stroke-width="1"/>
  <path id="ID0.3088560909964144" fill="none" stroke="#FFFFFF" stroke-width="3.6275917887687683" d="M 8.2098 14.3462 C 9.9075 14.3462 11.4461 13.6564 12.5603 12.5427 C 13.674 11.4285 14.3637 9.8899 14.3637 8.1922 C 14.3637 6.4945 13.674 4.9559 12.5603 3.8417 C 11.4461 2.728 9.9075 2.0383 8.2098 2.0383 C 6.5121 2.0383 4.9735 2.728 3.8593 3.8417 C 2.7456 4.9559 2.0558 6.4945 2.0558 8.1922 C 2.0558 9.8899 2.7456 11.4285 3.8593 12.5427 C 4.9735 13.6564 6.5121 14.3462 8.2098 14.3462 Z "/>
</svg>